<svg width="303" height="48" viewBox="0 0 303 48" fill="none" xmlns="http://www.w3.org/2000/svg">
<g filter="url(#filter0_d_4133_213)">
<rect x="4" width="295" height="40" rx="8" fill="white" shape-rendering="crispEdges"/>
<rect x="4.5" y="0.5" width="294" height="39" rx="7.5" stroke="#E0E0E0" shape-rendering="crispEdges"/>
<path d="M27 28C31.4183 28 35 24.4183 35 20C35 15.5817 31.4183 12 27 12C22.5817 12 19 15.5817 19 20C19 24.4183 22.5817 28 27 28Z" stroke="#828282" stroke-width="2" stroke-linecap="round" stroke-linejoin="round"/>
<path d="M37 30L32.65 25.65" stroke="#828282" stroke-width="2" stroke-linecap="round" stroke-linejoin="round"/>
<path d="M59.7727 18.2727C59.7045 17.697 59.428 17.25 58.9432 16.9318C58.4583 16.6136 57.8636 16.4545 57.1591 16.4545C56.6439 16.4545 56.1932 16.5379 55.8068 16.7045C55.4242 16.8712 55.125 17.1004 54.9091 17.392C54.697 17.6837 54.5909 18.0152 54.5909 18.3864C54.5909 18.697 54.6648 18.964 54.8125 19.1875C54.964 19.4072 55.1572 19.5909 55.392 19.7386C55.6269 19.8826 55.8731 20.0019 56.1307 20.0966C56.3883 20.1875 56.625 20.2614 56.8409 20.3182L58.0227 20.6364C58.3258 20.7159 58.6629 20.8258 59.0341 20.9659C59.4091 21.1061 59.767 21.2973 60.108 21.5398C60.4527 21.7784 60.7367 22.0852 60.9602 22.4602C61.1837 22.8352 61.2955 23.2955 61.2955 23.8409C61.2955 24.4697 61.1307 25.0379 60.8011 25.5455C60.4754 26.053 59.9981 26.4564 59.3693 26.7557C58.7443 27.0549 57.9848 27.2045 57.0909 27.2045C56.2576 27.2045 55.536 27.0701 54.9261 26.8011C54.3201 26.5322 53.8428 26.1572 53.4943 25.6761C53.1496 25.1951 52.9545 24.6364 52.9091 24H54.3636C54.4015 24.4394 54.5492 24.803 54.8068 25.0909C55.0682 25.375 55.3977 25.5871 55.7955 25.7273C56.197 25.8636 56.6288 25.9318 57.0909 25.9318C57.6288 25.9318 58.1117 25.8447 58.5398 25.6705C58.9678 25.4924 59.3068 25.2462 59.5568 24.9318C59.8068 24.6136 59.9318 24.2424 59.9318 23.8182C59.9318 23.4318 59.8239 23.1174 59.608 22.875C59.392 22.6326 59.108 22.4356 58.7557 22.2841C58.4034 22.1326 58.0227 22 57.6136 21.8864L56.1818 21.4773C55.2727 21.2159 54.553 20.8428 54.0227 20.358C53.4924 19.8731 53.2273 19.2386 53.2273 18.4545C53.2273 17.803 53.4034 17.2348 53.7557 16.75C54.1117 16.2614 54.589 15.8826 55.1875 15.6136C55.7898 15.3409 56.4621 15.2045 57.2045 15.2045C57.9545 15.2045 58.6212 15.339 59.2045 15.608C59.7879 15.8731 60.25 16.2367 60.5909 16.6989C60.9356 17.161 61.1174 17.6856 61.1364 18.2727H59.7727ZM67.0895 27.1818C66.2486 27.1818 65.5232 26.9962 64.9134 26.625C64.3073 26.25 63.8395 25.7273 63.5099 25.0568C63.1842 24.3826 63.0213 23.5985 63.0213 22.7045C63.0213 21.8106 63.1842 21.0227 63.5099 20.3409C63.8395 19.6553 64.2978 19.1212 64.8849 18.7386C65.4759 18.3523 66.1652 18.1591 66.9531 18.1591C67.4077 18.1591 67.8565 18.2348 68.2997 18.3864C68.7429 18.5379 69.1463 18.7841 69.5099 19.125C69.8736 19.4621 70.1634 19.9091 70.3793 20.4659C70.5952 21.0227 70.7031 21.7083 70.7031 22.5227V23.0909H63.9759V21.9318H69.3395C69.3395 21.4394 69.241 21 69.044 20.6136C68.8509 20.2273 68.5743 19.9223 68.2145 19.6989C67.8584 19.4754 67.438 19.3636 66.9531 19.3636C66.419 19.3636 65.9569 19.4962 65.5668 19.7614C65.1804 20.0227 64.883 20.3636 64.6747 20.7841C64.4664 21.2045 64.3622 21.6553 64.3622 22.1364V22.9091C64.3622 23.5682 64.4759 24.1269 64.7031 24.5852C64.9342 25.0398 65.2543 25.3864 65.6634 25.625C66.0724 25.8598 66.5478 25.9773 67.0895 25.9773C67.4418 25.9773 67.7599 25.928 68.044 25.8295C68.3319 25.7273 68.58 25.5758 68.7884 25.375C68.9967 25.1705 69.1577 24.9167 69.2713 24.6136L70.5668 24.9773C70.4304 25.4167 70.2012 25.803 69.8793 26.1364C69.5573 26.4659 69.1596 26.7235 68.6861 26.9091C68.2126 27.0909 67.6804 27.1818 67.0895 27.1818ZM75.3111 27.2045C74.758 27.2045 74.2562 27.1004 73.8054 26.892C73.3546 26.6799 72.9967 26.375 72.7315 25.9773C72.4664 25.5758 72.3338 25.0909 72.3338 24.5227C72.3338 24.0227 72.4323 23.6174 72.6293 23.3068C72.8262 22.9924 73.0895 22.7462 73.419 22.5682C73.7486 22.3902 74.1122 22.2576 74.5099 22.1705C74.9115 22.0795 75.3149 22.0076 75.7202 21.9545C76.2505 21.8864 76.6804 21.8352 77.0099 21.8011C77.3433 21.7633 77.5857 21.7008 77.7372 21.6136C77.8925 21.5265 77.9702 21.375 77.9702 21.1591V21.1136C77.9702 20.553 77.8168 20.1174 77.5099 19.8068C77.2069 19.4962 76.7467 19.3409 76.1293 19.3409C75.4891 19.3409 74.9872 19.4811 74.6236 19.7614C74.2599 20.0417 74.0043 20.3409 73.8565 20.6591L72.5838 20.2045C72.8111 19.6742 73.1141 19.2614 73.4929 18.9659C73.8755 18.6667 74.2921 18.4583 74.7429 18.3409C75.1974 18.2197 75.6444 18.1591 76.0838 18.1591C76.3641 18.1591 76.6861 18.1932 77.0497 18.2614C77.4171 18.3258 77.7713 18.4602 78.1122 18.6648C78.4569 18.8693 78.7429 19.178 78.9702 19.5909C79.1974 20.0038 79.3111 20.5568 79.3111 21.25V27H77.9702V25.8182H77.902C77.8111 26.0076 77.6596 26.2102 77.4474 26.4261C77.2353 26.642 76.9531 26.8258 76.6009 26.9773C76.2486 27.1288 75.8187 27.2045 75.3111 27.2045ZM75.5156 26C76.0459 26 76.4929 25.8958 76.8565 25.6875C77.224 25.4792 77.5005 25.2102 77.6861 24.8807C77.8755 24.5511 77.9702 24.2045 77.9702 23.8409V22.6136C77.9134 22.6818 77.7884 22.7443 77.5952 22.8011C77.4058 22.8542 77.1861 22.9015 76.9361 22.9432C76.6899 22.9811 76.4493 23.0152 76.2145 23.0455C75.9834 23.072 75.7959 23.0947 75.652 23.1136C75.3035 23.1591 74.9777 23.233 74.6747 23.3352C74.3755 23.4337 74.133 23.5833 73.9474 23.7841C73.7656 23.9811 73.6747 24.25 73.6747 24.5909C73.6747 25.0568 73.8471 25.4091 74.1918 25.6477C74.5402 25.8826 74.9815 26 75.5156 26ZM81.7585 27V18.2727H83.054V19.5909H83.1449C83.304 19.1591 83.5919 18.8087 84.0085 18.5398C84.4252 18.2708 84.8949 18.1364 85.4176 18.1364C85.5161 18.1364 85.6392 18.1383 85.7869 18.142C85.9347 18.1458 86.0464 18.1515 86.1222 18.1591V19.5227C86.0767 19.5114 85.9725 19.4943 85.8097 19.4716C85.6506 19.4451 85.482 19.4318 85.304 19.4318C84.8797 19.4318 84.5009 19.5208 84.1676 19.6989C83.8381 19.8731 83.5767 20.1155 83.3835 20.4261C83.1941 20.733 83.0994 21.0833 83.0994 21.4773V27H81.7585ZM90.9915 27.1818C90.1733 27.1818 89.4688 26.9886 88.8778 26.6023C88.2869 26.2159 87.8324 25.6837 87.5142 25.0057C87.196 24.3277 87.0369 23.553 87.0369 22.6818C87.0369 21.7955 87.1998 21.0133 87.5256 20.3352C87.8551 19.6534 88.3134 19.1212 88.9006 18.7386C89.4915 18.3523 90.1809 18.1591 90.9688 18.1591C91.5824 18.1591 92.1354 18.2727 92.6278 18.5C93.1203 18.7273 93.5237 19.0455 93.8381 19.4545C94.1525 19.8636 94.3475 20.3409 94.4233 20.8864H93.0824C92.9801 20.4886 92.7528 20.1364 92.4006 19.8295C92.0521 19.5189 91.5824 19.3636 90.9915 19.3636C90.4688 19.3636 90.0104 19.5 89.6165 19.7727C89.2263 20.0417 88.9214 20.4223 88.7017 20.9148C88.4858 21.4034 88.3778 21.9773 88.3778 22.6364C88.3778 23.3106 88.4839 23.8977 88.696 24.3977C88.9119 24.8977 89.215 25.286 89.6051 25.5625C89.9991 25.839 90.4612 25.9773 90.9915 25.9773C91.34 25.9773 91.6562 25.9167 91.9403 25.7955C92.2244 25.6742 92.465 25.5 92.6619 25.2727C92.8589 25.0455 92.9991 24.7727 93.0824 24.4545H94.4233C94.3475 24.9697 94.16 25.4337 93.8608 25.8466C93.5653 26.2557 93.1733 26.5814 92.6847 26.8239C92.1998 27.0625 91.6354 27.1818 90.9915 27.1818ZM97.7244 21.75V27H96.3835V15.3636H97.7244V19.6364H97.8381C98.0426 19.1856 98.3494 18.8277 98.7585 18.5625C99.1714 18.2936 99.7206 18.1591 100.406 18.1591C101.001 18.1591 101.522 18.2784 101.969 18.517C102.416 18.7519 102.762 19.1136 103.009 19.6023C103.259 20.0871 103.384 20.7045 103.384 21.4545V27H102.043V21.5455C102.043 20.8523 101.863 20.3163 101.503 19.9375C101.147 19.5549 100.652 19.3636 100.02 19.3636C99.5805 19.3636 99.1866 19.4564 98.8381 19.642C98.4934 19.8277 98.2206 20.0985 98.0199 20.4545C97.8229 20.8106 97.7244 21.2424 97.7244 21.75Z" fill="#828282"/>
<path d="M271 23C270.167 23 269.458 22.7083 268.875 22.125C268.292 21.5417 268 20.8333 268 20V14C268 13.1667 268.292 12.4583 268.875 11.875C269.458 11.2917 270.167 11 271 11C271.833 11 272.542 11.2917 273.125 11.875C273.708 12.4583 274 13.1667 274 14V20C274 20.8333 273.708 21.5417 273.125 22.125C272.542 22.7083 271.833 23 271 23ZM270 30V26.925C268.267 26.6917 266.833 25.9167 265.7 24.6C264.567 23.2833 264 21.75 264 20H266C266 21.3833 266.488 22.5627 267.463 23.538C268.438 24.5133 269.617 25.0007 271 25C272.383 24.9993 273.562 24.5117 274.538 23.537C275.514 22.5623 276.001 21.3833 276 20H278C278 21.75 277.433 23.2833 276.3 24.6C275.167 25.9167 273.733 26.6917 272 26.925V30H270Z" fill="black"/>
</g>
<defs>
<filter id="filter0_d_4133_213" x="0" y="0" width="303" height="48" filterUnits="userSpaceOnUse" color-interpolation-filters="sRGB">
<feFlood flood-opacity="0" result="BackgroundImageFix"/>
<feColorMatrix in="SourceAlpha" type="matrix" values="0 0 0 0 0 0 0 0 0 0 0 0 0 0 0 0 0 0 127 0" result="hardAlpha"/>
<feOffset dy="4"/>
<feGaussianBlur stdDeviation="2"/>
<feComposite in2="hardAlpha" operator="out"/>
<feColorMatrix type="matrix" values="0 0 0 0 0 0 0 0 0 0 0 0 0 0 0 0 0 0 0.25 0"/>
<feBlend mode="normal" in2="BackgroundImageFix" result="effect1_dropShadow_4133_213"/>
<feBlend mode="normal" in="SourceGraphic" in2="effect1_dropShadow_4133_213" result="shape"/>
</filter>
</defs>
</svg>
