<svg width="48" height="48" viewBox="0 0 48 48" fill="none" xmlns="http://www.w3.org/2000/svg">
<path d="M28 11.3999C18.8333 11.3999 11.3333 18.8832 11.3333 28.0999C11.3333 36.4332 17.4333 43.3499 25.4 44.5999V32.9332H21.1667V28.0999H25.4V24.4166C25.4 20.2332 27.8833 17.9332 31.7 17.9332C33.5167 17.9332 35.4167 18.2499 35.4167 18.2499V22.3666H33.3167C31.25 22.3666 30.6 23.6499 30.6 24.9666V28.0999H35.2333L34.4833 32.9332H30.6V44.5999C34.5274 43.9796 38.1037 41.9758 40.6832 38.95C43.2628 35.9242 44.6756 32.076 44.6667 28.0999C44.6667 18.8832 37.1667 11.3999 28 11.3999Z" fill="#050218"/>
</svg>
