<svg width="48" height="48" viewBox="0 0 48 48" fill="none" xmlns="http://www.w3.org/2000/svg">
<path d="M21 11.3335H35C40.3333 11.3335 44.6667 15.6668 44.6667 21.0002V35.0002C44.6667 37.5639 43.6482 40.0227 41.8354 41.8355C40.0225 43.6484 37.5638 44.6668 35 44.6668H21C15.6667 44.6668 11.3333 40.3335 11.3333 35.0002V21.0002C11.3333 18.4364 12.3518 15.9776 14.1646 14.1648C15.9775 12.3519 18.4362 11.3335 21 11.3335ZM20.6667 14.6668C19.0754 14.6668 17.5492 15.299 16.424 16.4242C15.2988 17.5494 14.6667 19.0755 14.6667 20.6668V35.3335C14.6667 38.6502 17.35 41.3335 20.6667 41.3335H35.3333C36.9246 41.3335 38.4508 40.7014 39.576 39.5761C40.7012 38.4509 41.3333 36.9248 41.3333 35.3335V20.6668C41.3333 17.3502 38.65 14.6668 35.3333 14.6668H20.6667ZM36.75 17.1668C37.3025 17.1668 37.8324 17.3863 38.2231 17.777C38.6138 18.1677 38.8333 18.6976 38.8333 19.2502C38.8333 19.8027 38.6138 20.3326 38.2231 20.7233C37.8324 21.114 37.3025 21.3335 36.75 21.3335C36.1975 21.3335 35.6676 21.114 35.2769 20.7233C34.8862 20.3326 34.6667 19.8027 34.6667 19.2502C34.6667 18.6976 34.8862 18.1677 35.2769 17.777C35.6676 17.3863 36.1975 17.1668 36.75 17.1668ZM28 19.6668C30.2101 19.6668 32.3297 20.5448 33.8926 22.1076C35.4554 23.6704 36.3333 25.79 36.3333 28.0002C36.3333 30.2103 35.4554 32.3299 33.8926 33.8927C32.3297 35.4555 30.2101 36.3335 28 36.3335C25.7899 36.3335 23.6702 35.4555 22.1074 33.8927C20.5446 32.3299 19.6667 30.2103 19.6667 28.0002C19.6667 25.79 20.5446 23.6704 22.1074 22.1076C23.6702 20.5448 25.7899 19.6668 28 19.6668ZM28 23.0002C26.6739 23.0002 25.4021 23.5269 24.4645 24.4646C23.5268 25.4023 23 26.6741 23 28.0002C23 29.3262 23.5268 30.598 24.4645 31.5357C25.4021 32.4734 26.6739 33.0002 28 33.0002C29.3261 33.0002 30.5978 32.4734 31.5355 31.5357C32.4732 30.598 33 29.3262 33 28.0002C33 26.6741 32.4732 25.4023 31.5355 24.4646C30.5978 23.5269 29.3261 23.0002 28 23.0002Z" fill="#111010"/>
</svg>
