<svg width="48" height="48" viewBox="0 0 48 48" fill="none" xmlns="http://www.w3.org/2000/svg">
<path d="M24.6667 33.0002L33.3167 28.0002L24.6667 23.0002V33.0002ZM43.9333 19.9502C44.15 20.7335 44.3 21.7835 44.4 23.1168C44.5167 24.4502 44.5667 25.6002 44.5667 26.6002L44.6667 28.0002C44.6667 31.6502 44.4 34.3335 43.9333 36.0502C43.5167 37.5502 42.55 38.5168 41.05 38.9335C40.2667 39.1502 38.8333 39.3002 36.6333 39.4002C34.4667 39.5168 32.4833 39.5668 30.65 39.5668L28 39.6668C21.0167 39.6668 16.6667 39.4002 14.95 38.9335C13.45 38.5168 12.4833 37.5502 12.0667 36.0502C11.85 35.2668 11.7 34.2168 11.6 32.8835C11.4833 31.5502 11.4333 30.4002 11.4333 29.4002L11.3333 28.0002C11.3333 24.3502 11.6 21.6668 12.0667 19.9502C12.4833 18.4502 13.45 17.4835 14.95 17.0668C15.7333 16.8502 17.1667 16.7002 19.3667 16.6002C21.5333 16.4835 23.5167 16.4335 25.35 16.4335L28 16.3335C34.9833 16.3335 39.3333 16.6002 41.05 17.0668C42.55 17.4835 43.5167 18.4502 43.9333 19.9502Z" fill="black"/>
</svg>
