<svg width="52" height="13" viewBox="0 0 52 13" fill="none" xmlns="http://www.w3.org/2000/svg">
<path d="M7.77273 3.27273C7.70455 2.69697 7.42803 2.25 6.94318 1.93182C6.45833 1.61364 5.86364 1.45455 5.15909 1.45455C4.64394 1.45455 4.19318 1.53788 3.80682 1.70455C3.42424 1.87121 3.125 2.10038 2.90909 2.39205C2.69697 2.68371 2.59091 3.01515 2.59091 3.38636C2.59091 3.69697 2.66477 3.96401 2.8125 4.1875C2.96402 4.4072 3.1572 4.59091 3.39205 4.73864C3.62689 4.88258 3.87311 5.00189 4.13068 5.09659C4.38826 5.1875 4.625 5.26136 4.84091 5.31818L6.02273 5.63636C6.32576 5.71591 6.66288 5.82576 7.03409 5.96591C7.40909 6.10606 7.76705 6.29735 8.10795 6.53977C8.45265 6.77841 8.73674 7.08523 8.96023 7.46023C9.18371 7.83523 9.29545 8.29545 9.29545 8.84091C9.29545 9.4697 9.13068 10.0379 8.80114 10.5455C8.47538 11.053 7.99811 11.4564 7.36932 11.7557C6.74432 12.0549 5.98485 12.2045 5.09091 12.2045C4.25758 12.2045 3.53598 12.0701 2.92614 11.8011C2.32008 11.5322 1.8428 11.1572 1.49432 10.6761C1.14962 10.1951 0.954545 9.63636 0.909091 9H2.36364C2.40152 9.43939 2.54924 9.80303 2.80682 10.0909C3.06818 10.375 3.39773 10.5871 3.79545 10.7273C4.19697 10.8636 4.62879 10.9318 5.09091 10.9318C5.62879 10.9318 6.11174 10.8447 6.53977 10.6705C6.9678 10.4924 7.30682 10.2462 7.55682 9.93182C7.80682 9.61364 7.93182 9.24242 7.93182 8.81818C7.93182 8.43182 7.82386 8.11742 7.60795 7.875C7.39205 7.63258 7.10795 7.43561 6.75568 7.28409C6.40341 7.13258 6.02273 7 5.61364 6.88636L4.18182 6.47727C3.27273 6.21591 2.55303 5.8428 2.02273 5.35795C1.49242 4.87311 1.22727 4.23864 1.22727 3.45455C1.22727 2.80303 1.40341 2.23485 1.75568 1.75C2.11174 1.26136 2.58902 0.882575 3.1875 0.613636C3.78977 0.340909 4.46212 0.204545 5.20455 0.204545C5.95455 0.204545 6.62121 0.339015 7.20455 0.607954C7.78788 0.873105 8.25 1.23674 8.59091 1.69886C8.93561 2.16098 9.11742 2.68561 9.13636 3.27273H7.77273ZM15.0895 12.1818C14.2486 12.1818 13.5232 11.9962 12.9134 11.625C12.3073 11.25 11.8395 10.7273 11.5099 10.0568C11.1842 9.38258 11.0213 8.59848 11.0213 7.70455C11.0213 6.81061 11.1842 6.02273 11.5099 5.34091C11.8395 4.6553 12.2978 4.12121 12.8849 3.73864C13.4759 3.35227 14.1652 3.15909 14.9531 3.15909C15.4077 3.15909 15.8565 3.23485 16.2997 3.38636C16.7429 3.53788 17.1463 3.78409 17.5099 4.125C17.8736 4.46212 18.1634 4.90909 18.3793 5.46591C18.5952 6.02273 18.7031 6.70833 18.7031 7.52273V8.09091H11.9759V6.93182H17.3395C17.3395 6.43939 17.241 6 17.044 5.61364C16.8509 5.22727 16.5743 4.92235 16.2145 4.69886C15.8584 4.47538 15.438 4.36364 14.9531 4.36364C14.419 4.36364 13.9569 4.49621 13.5668 4.76136C13.1804 5.02273 12.883 5.36364 12.6747 5.78409C12.4664 6.20455 12.3622 6.6553 12.3622 7.13636V7.90909C12.3622 8.56818 12.4759 9.12689 12.7031 9.58523C12.9342 10.0398 13.2543 10.3864 13.6634 10.625C14.0724 10.8598 14.5478 10.9773 15.0895 10.9773C15.4418 10.9773 15.7599 10.928 16.044 10.8295C16.3319 10.7273 16.58 10.5758 16.7884 10.375C16.9967 10.1705 17.1577 9.91667 17.2713 9.61364L18.5668 9.97727C18.4304 10.4167 18.2012 10.803 17.8793 11.1364C17.5573 11.4659 17.1596 11.7235 16.6861 11.9091C16.2126 12.0909 15.6804 12.1818 15.0895 12.1818ZM23.3111 12.2045C22.758 12.2045 22.2562 12.1004 21.8054 11.892C21.3546 11.6799 20.9967 11.375 20.7315 10.9773C20.4664 10.5758 20.3338 10.0909 20.3338 9.52273C20.3338 9.02273 20.4323 8.61742 20.6293 8.30682C20.8262 7.99242 21.0895 7.74621 21.419 7.56818C21.7486 7.39015 22.1122 7.25758 22.5099 7.17045C22.9115 7.07955 23.3149 7.00758 23.7202 6.95455C24.2505 6.88636 24.6804 6.83523 25.0099 6.80114C25.3433 6.76326 25.5857 6.70076 25.7372 6.61364C25.8925 6.52652 25.9702 6.375 25.9702 6.15909V6.11364C25.9702 5.55303 25.8168 5.11742 25.5099 4.80682C25.2069 4.49621 24.7467 4.34091 24.1293 4.34091C23.4891 4.34091 22.9872 4.48106 22.6236 4.76136C22.2599 5.04167 22.0043 5.34091 21.8565 5.65909L20.5838 5.20455C20.8111 4.67424 21.1141 4.26136 21.4929 3.96591C21.8755 3.66667 22.2921 3.45833 22.7429 3.34091C23.1974 3.2197 23.6444 3.15909 24.0838 3.15909C24.3641 3.15909 24.6861 3.19318 25.0497 3.26136C25.4171 3.32576 25.7713 3.46023 26.1122 3.66477C26.4569 3.86932 26.7429 4.17803 26.9702 4.59091C27.1974 5.00379 27.3111 5.55682 27.3111 6.25V12H25.9702V10.8182H25.902C25.8111 11.0076 25.6596 11.2102 25.4474 11.4261C25.2353 11.642 24.9531 11.8258 24.6009 11.9773C24.2486 12.1288 23.8187 12.2045 23.3111 12.2045ZM23.5156 11C24.0459 11 24.4929 10.8958 24.8565 10.6875C25.224 10.4792 25.5005 10.2102 25.6861 9.88068C25.8755 9.55114 25.9702 9.20455 25.9702 8.84091V7.61364C25.9134 7.68182 25.7884 7.74432 25.5952 7.80114C25.4058 7.85417 25.1861 7.90151 24.9361 7.94318C24.6899 7.98106 24.4493 8.01515 24.2145 8.04545C23.9834 8.07197 23.7959 8.0947 23.652 8.11364C23.3035 8.15909 22.9777 8.23295 22.6747 8.33523C22.3755 8.43371 22.133 8.58333 21.9474 8.78409C21.7656 8.98106 21.6747 9.25 21.6747 9.59091C21.6747 10.0568 21.8471 10.4091 22.1918 10.6477C22.5402 10.8826 22.9815 11 23.5156 11ZM29.7585 12V3.27273H31.054V4.59091H31.1449C31.304 4.15909 31.5919 3.80871 32.0085 3.53977C32.4252 3.27083 32.8949 3.13636 33.4176 3.13636C33.5161 3.13636 33.6392 3.13826 33.7869 3.14205C33.9347 3.14583 34.0464 3.15152 34.1222 3.15909V4.52273C34.0767 4.51136 33.9725 4.49432 33.8097 4.47159C33.6506 4.44508 33.482 4.43182 33.304 4.43182C32.8797 4.43182 32.5009 4.52083 32.1676 4.69886C31.8381 4.87311 31.5767 5.11553 31.3835 5.42614C31.1941 5.73295 31.0994 6.08333 31.0994 6.47727V12H29.7585ZM38.9915 12.1818C38.1733 12.1818 37.4688 11.9886 36.8778 11.6023C36.2869 11.2159 35.8324 10.6837 35.5142 10.0057C35.196 9.32765 35.0369 8.55303 35.0369 7.68182C35.0369 6.79545 35.1998 6.01326 35.5256 5.33523C35.8551 4.65341 36.3134 4.12121 36.9006 3.73864C37.4915 3.35227 38.1809 3.15909 38.9688 3.15909C39.5824 3.15909 40.1354 3.27273 40.6278 3.5C41.1203 3.72727 41.5237 4.04545 41.8381 4.45455C42.1525 4.86364 42.3475 5.34091 42.4233 5.88636H41.0824C40.9801 5.48864 40.7528 5.13636 40.4006 4.82955C40.0521 4.51894 39.5824 4.36364 38.9915 4.36364C38.4688 4.36364 38.0104 4.5 37.6165 4.77273C37.2263 5.04167 36.9214 5.42235 36.7017 5.91477C36.4858 6.40341 36.3778 6.97727 36.3778 7.63636C36.3778 8.31061 36.4839 8.89773 36.696 9.39773C36.9119 9.89773 37.215 10.286 37.6051 10.5625C37.9991 10.839 38.4612 10.9773 38.9915 10.9773C39.34 10.9773 39.6562 10.9167 39.9403 10.7955C40.2244 10.6742 40.465 10.5 40.6619 10.2727C40.8589 10.0455 40.9991 9.77273 41.0824 9.45455H42.4233C42.3475 9.9697 42.16 10.4337 41.8608 10.8466C41.5653 11.2557 41.1733 11.5814 40.6847 11.8239C40.1998 12.0625 39.6354 12.1818 38.9915 12.1818ZM45.7244 6.75V12H44.3835V0.363636H45.7244V4.63636H45.8381C46.0426 4.18561 46.3494 3.82765 46.7585 3.5625C47.1714 3.29356 47.7206 3.15909 48.4062 3.15909C49.0009 3.15909 49.5218 3.27841 49.9688 3.51705C50.4157 3.75189 50.7623 4.11364 51.0085 4.60227C51.2585 5.08712 51.3835 5.70455 51.3835 6.45455V12H50.0426V6.54545C50.0426 5.85227 49.8627 5.31629 49.5028 4.9375C49.1468 4.55492 48.6525 4.36364 48.0199 4.36364C47.5805 4.36364 47.1866 4.45644 46.8381 4.64205C46.4934 4.82765 46.2206 5.09848 46.0199 5.45455C45.8229 5.81061 45.7244 6.24242 45.7244 6.75Z" fill="#828282"/>
</svg>
